<svg width="368" height="368" viewBox="22 17 368 368" fill="none" xmlns="http://www.w3.org/2000/svg">
<g filter="url(#filter0_d_1_168)">
<rect x="22" y="17" width="368" height="368" rx="33.6842" fill="url(#paint0_linear_1_168)"/>
</g>
<path d="M171.875 160.988C171.573 160.677 171.211 160.43 170.812 160.26C170.413 160.09 169.983 160.002 169.55 160C169.116 159.998 168.686 160.083 168.285 160.249C167.884 160.415 167.52 160.66 167.215 160.968C166.91 161.276 166.669 161.642 166.507 162.045C166.345 162.447 166.265 162.878 166.271 163.312C166.277 163.746 166.37 164.174 166.543 164.572C166.717 164.969 166.968 165.328 167.282 165.628L172.195 170.492C171.659 170.935 171.138 171.398 170.631 171.883C167.145 175.245 164.705 179.443 163.758 183.713L163.749 183.753C163.749 183.763 163.749 183.774 163.749 183.784C162.583 189.377 162.012 195.159 162 201.473C162.01 207.757 162.581 213.535 163.744 219.137V219.154L163.753 219.194V219.218C164.696 223.48 167.136 227.677 170.626 231.039C174.116 234.4 178.403 236.709 182.72 237.541C187.036 238.372 197.481 239.335 205.088 239.335C205.392 239.335 205.693 239.335 205.986 239.335H206.846C214.52 239.335 225 238.388 229.229 237.546C231.94 236.994 234.53 235.962 236.877 234.498L244.395 241.936C244.698 242.247 245.059 242.495 245.459 242.665C245.858 242.834 246.287 242.923 246.721 242.924C247.155 242.926 247.585 242.842 247.986 242.676C248.386 242.509 248.75 242.265 249.055 241.957C249.361 241.648 249.601 241.282 249.763 240.88C249.926 240.477 250.006 240.046 250 239.613C249.993 239.179 249.901 238.751 249.727 238.353C249.553 237.955 249.302 237.596 248.988 237.297L171.875 160.988ZM188.064 187.829C188.655 187.828 189.233 188.003 189.725 188.332C190.216 188.66 190.6 189.126 190.826 189.672C191.052 190.218 191.112 190.819 190.997 191.399C190.882 191.979 190.597 192.511 190.179 192.929C189.761 193.348 189.229 193.632 188.649 193.748C188.07 193.863 187.469 193.804 186.923 193.578C186.376 193.352 185.91 192.969 185.581 192.477C185.253 191.986 185.077 191.408 185.077 190.817C185.078 190.025 185.393 189.266 185.953 188.706C186.513 188.146 187.272 187.83 188.064 187.829ZM170.449 218.965C170.329 218.584 170.226 218.201 170.14 217.816V217.8C169.069 212.645 168.543 207.294 168.535 201.476C168.545 195.634 169.069 190.281 170.138 185.131V185.121C170.977 181.34 173.552 177.689 176.881 175.132L184.028 182.203C182.639 182.853 181.428 183.829 180.498 185.047C179.567 186.266 178.945 187.691 178.684 189.202C178.423 190.713 178.531 192.264 178.999 193.724C179.466 195.184 180.28 196.51 181.37 197.588C182.46 198.666 183.794 199.465 185.259 199.916C186.725 200.368 188.277 200.458 189.785 200.181C191.293 199.903 192.711 199.265 193.919 198.322C195.128 197.378 196.09 196.156 196.724 194.761L206.863 204.801C204.332 207.868 201.787 211.13 199.355 214.424C198.007 212.771 196.667 211.2 195.336 209.71C193.26 207.403 190.195 206.122 186.706 206.102H186.677C183.189 206.116 180.123 207.396 178.041 209.71C175.542 212.51 172.956 215.663 170.449 218.965ZM227.985 231.138C224.118 231.908 214.051 232.805 206.863 232.805C206.581 232.805 206.304 232.805 206.033 232.805H205.962C198.998 232.879 188.076 231.954 183.993 231.14C180.278 230.417 176.664 228.129 174.027 225.115C176.929 221.163 179.993 217.352 182.918 214.078C183.73 213.173 185.112 212.649 186.698 212.638C188.284 212.628 189.672 213.173 190.478 214.07C192.578 216.421 194.742 219.034 196.908 221.838C197.221 222.243 197.624 222.568 198.085 222.788C198.546 223.009 199.052 223.118 199.563 223.107C200.073 223.096 200.574 222.965 201.026 222.725C201.477 222.485 201.865 222.143 202.16 221.725C205.12 217.536 208.337 213.321 211.538 209.418L232.054 229.715C230.769 230.373 229.4 230.852 227.985 231.138Z" fill="white" fill-opacity="0.12"/>
<path d="M248.231 183.764L248.222 183.725C248.222 183.719 248.222 183.713 248.222 183.708C247.279 179.446 244.839 175.248 241.349 171.887C237.859 168.526 233.572 166.217 229.255 165.383C224.788 164.493 213.661 163.52 205.99 163.594C199.779 163.531 191.302 164.158 185.936 164.873L191.917 170.789C196.519 170.375 201.908 170.079 205.956 170.124H206.023C212.994 170.048 223.925 170.983 227.994 171.789C234.376 173.031 240.457 178.881 241.84 185.11V185.127C242.911 190.282 243.435 195.63 243.445 201.451C243.445 204.6 243.273 207.747 242.93 210.877C239.782 206.818 236.213 202.405 233.405 199.262C230.812 196.368 226.954 194.762 222.531 194.745H222.504C220.65 194.74 218.809 195.052 217.06 195.666L222.731 201.28C224.25 201.317 226.819 201.697 228.549 203.62C232.39 207.916 237.747 214.738 241.33 219.547C241.318 219.58 241.304 219.611 241.292 219.644L246.241 224.541C247.131 222.86 247.795 221.069 248.216 219.214C248.216 219.207 248.216 219.199 248.216 219.192L248.224 219.152V219.133C249.386 213.537 249.956 207.754 249.968 201.446C249.98 195.138 249.387 189.383 248.224 183.782L248.231 183.764Z" fill="white" fill-opacity="0.12"/>
<defs>
<filter id="filter0_d_1_168" x="0.947369" y="0.157895" width="410.105" height="410.105" filterUnits="userSpaceOnUse" color-interpolation-filters="sRGB">
<feFlood flood-opacity="0" result="BackgroundImageFix"/>
<feColorMatrix in="SourceAlpha" type="matrix" values="0 0 0 0 0 0 0 0 0 0 0 0 0 0 0 0 0 0 127 0" result="hardAlpha"/>
<feOffset dy="4.21053"/>
<feGaussianBlur stdDeviation="10.5263"/>
<feColorMatrix type="matrix" values="0 0 0 0 0 0 0 0 0 0 0 0 0 0 0 0 0 0 0.1 0"/>
<feBlend mode="normal" in2="BackgroundImageFix" result="effect1_dropShadow_1_168"/>
<feBlend mode="normal" in="SourceGraphic" in2="effect1_dropShadow_1_168" result="shape"/>
</filter>
<linearGradient id="paint0_linear_1_168" x1="206" y1="17" x2="206" y2="385" gradientUnits="userSpaceOnUse">
<stop stop-color="white" stop-opacity="0.12"/>
<stop offset="1" stop-color="white" stop-opacity="0.06"/>
</linearGradient>
</defs>
</svg>
